STARTFONT 2.1
COMMENT
COMMENT Converted from OpenType font "Giilbert20.ttf" by "otf2bdf 3.0".
COMMENT
FONT -FreeType-Giilbert 20-Medium-R-Normal--20-200-72-72-P-109-ISO10646-1
SIZE 20 72 72
FONTBOUNDINGBOX 19 20 -1 -4
STARTPROPERTIES 19
FOUNDRY "FreeType"
FAMILY_NAME "Giilbert 20"
WEIGHT_NAME "Medium"
SLANT "R"
SETWIDTH_NAME "Normal"
ADD_STYLE_NAME ""
PIXEL_SIZE 20
POINT_SIZE 200
RESOLUTION_X 72
RESOLUTION_Y 72
SPACING "P"
AVERAGE_WIDTH 109
CHARSET_REGISTRY "ISO10646"
CHARSET_ENCODING "1"
FONT_ASCENT 16
FONT_DESCENT 4
COPYRIGHT "-FreeType-Giilbert 20-Medium-R-Normal--20-200-72-72-P-109-ISO10646-1"
_OTF_FONTFILE "Giilbert20.ttf"
_OTF_PSNAME "Giilbert-20-Medium"
ENDPROPERTIES
CHARS 138
STARTCHAR 0020
ENCODING 32
SWIDTH 250 0
DWIDTH 5 0
BBX 0 0 0 0
BITMAP
ENDCHAR
STARTCHAR 0021
ENCODING 33
SWIDTH 150 0
DWIDTH 3 0
BBX 2 15 0 0
BITMAP
C0
C0
C0
C0
C0
C0
C0
C0
C0
C0
C0
00
00
C0
C0
ENDCHAR
STARTCHAR 0022
ENCODING 34
SWIDTH 300 0
DWIDTH 6 0
BBX 5 4 0 11
BITMAP
D8
D8
D8
D8
ENDCHAR
STARTCHAR 0023
ENCODING 35
SWIDTH 550 0
DWIDTH 11 0
BBX 10 15 0 0
BITMAP
3300
3300
3300
3300
FFC0
FFC0
3300
3300
3300
FFC0
FFC0
3300
3300
3300
3300
ENDCHAR
STARTCHAR 0024
ENCODING 36
SWIDTH 550 0
DWIDTH 11 0
BBX 10 15 0 0
BITMAP
1E00
7F80
6D80
CCC0
CC00
6C00
7E00
1F80
0D80
0CC0
CCC0
CCC0
6D80
7F80
1E00
ENDCHAR
STARTCHAR 0025
ENCODING 37
SWIDTH 800 0
DWIDTH 16 0
BBX 15 15 0 0
BITMAP
7830
FC60
CC60
CCC0
CCC0
FD80
7980
0300
033C
067E
0666
0C66
0C66
187E
183C
ENDCHAR
STARTCHAR 0027
ENCODING 39
SWIDTH 150 0
DWIDTH 3 0
BBX 2 4 0 11
BITMAP
C0
C0
C0
C0
ENDCHAR
STARTCHAR 0028
ENCODING 40
SWIDTH 300 0
DWIDTH 6 0
BBX 5 18 0 -3
BITMAP
18
78
60
C0
C0
C0
C0
C0
C0
C0
C0
C0
C0
C0
C0
60
78
18
ENDCHAR
STARTCHAR 0029
ENCODING 41
SWIDTH 300 0
DWIDTH 6 0
BBX 5 18 0 -3
BITMAP
C0
F0
30
18
18
18
18
18
18
18
18
18
18
18
18
30
F0
C0
ENDCHAR
STARTCHAR 002A
ENCODING 42
SWIDTH 550 0
DWIDTH 11 0
BBX 10 9 0 6
BITMAP
0C00
0C00
EDC0
FFC0
1E00
3F00
3300
6180
6180
ENDCHAR
STARTCHAR 002B
ENCODING 43
SWIDTH 450 0
DWIDTH 9 0
BBX 8 8 0 2
BITMAP
18
18
18
FF
FF
18
18
18
ENDCHAR
STARTCHAR 002C
ENCODING 44
SWIDTH 250 0
DWIDTH 5 0
BBX 4 4 0 -2
BITMAP
30
30
E0
C0
ENDCHAR
STARTCHAR 002D
ENCODING 45
SWIDTH 450 0
DWIDTH 9 0
BBX 8 2 0 5
BITMAP
FF
FF
ENDCHAR
STARTCHAR 002E
ENCODING 46
SWIDTH 150 0
DWIDTH 3 0
BBX 2 2 0 0
BITMAP
C0
C0
ENDCHAR
STARTCHAR 002F
ENCODING 47
SWIDTH 400 0
DWIDTH 8 0
BBX 7 18 0 -3
BITMAP
06
06
06
0C
0C
0C
18
18
18
30
30
30
60
60
60
C0
C0
C0
ENDCHAR
STARTCHAR 0030
ENCODING 48
SWIDTH 600 0
DWIDTH 12 0
BBX 11 15 0 0
BITMAP
3F80
7FC0
C060
C060
C060
C060
C060
C060
C060
C060
C060
C060
C060
7FC0
3F80
ENDCHAR
STARTCHAR 0031
ENCODING 49
SWIDTH 600 0
DWIDTH 12 0
BBX 6 15 1 0
BITMAP
1C
3C
7C
EC
CC
0C
0C
0C
0C
0C
0C
0C
0C
0C
0C
ENDCHAR
STARTCHAR 0032
ENCODING 50
SWIDTH 600 0
DWIDTH 12 0
BBX 11 15 0 0
BITMAP
3F80
7FC0
C060
C060
0060
0060
0060
1FC0
7F80
6000
C000
C000
C000
FFE0
FFE0
ENDCHAR
STARTCHAR 0033
ENCODING 51
SWIDTH 600 0
DWIDTH 12 0
BBX 11 15 0 0
BITMAP
3F80
7FC0
C060
0060
0060
0060
1FC0
1FC0
0060
0060
0060
C060
C060
7FC0
3F80
ENDCHAR
STARTCHAR 0034
ENCODING 52
SWIDTH 600 0
DWIDTH 12 0
BBX 11 15 0 0
BITMAP
0C00
0C00
1980
1980
3180
3180
6180
6180
C180
FFE0
FFE0
0180
0180
0180
0180
ENDCHAR
STARTCHAR 0035
ENCODING 53
SWIDTH 600 0
DWIDTH 12 0
BBX 11 15 0 0
BITMAP
7FC0
7FC0
6000
6000
C000
DF80
FFC0
E060
0060
0060
0060
C060
C060
7FC0
3F80
ENDCHAR
STARTCHAR 0036
ENCODING 54
SWIDTH 600 0
DWIDTH 12 0
BBX 11 15 0 0
BITMAP
1FC0
7FC0
6000
C000
C000
C000
FF80
FFC0
C060
C060
C060
C060
C060
7FC0
3F80
ENDCHAR
STARTCHAR 0037
ENCODING 55
SWIDTH 600 0
DWIDTH 12 0
BBX 11 15 0 0
BITMAP
FFE0
FFE0
00C0
00C0
0180
0180
0300
0300
0600
0600
0C00
0C00
1800
1800
1800
ENDCHAR
STARTCHAR 0038
ENCODING 56
SWIDTH 600 0
DWIDTH 12 0
BBX 11 15 0 0
BITMAP
3F80
7FC0
C060
C060
C060
C060
7FC0
7FC0
C060
C060
C060
C060
C060
7FC0
3F80
ENDCHAR
STARTCHAR 0039
ENCODING 57
SWIDTH 600 0
DWIDTH 12 0
BBX 11 15 0 0
BITMAP
3F80
7FC0
C060
C060
C060
C060
C060
7FE0
3FE0
0060
0060
0060
00C0
7FC0
7F00
ENDCHAR
STARTCHAR 003A
ENCODING 58
SWIDTH 150 0
DWIDTH 3 0
BBX 2 11 0 0
BITMAP
C0
C0
00
00
00
00
00
00
00
C0
C0
ENDCHAR
STARTCHAR 003B
ENCODING 59
SWIDTH 250 0
DWIDTH 5 0
BBX 4 13 0 -2
BITMAP
30
30
00
00
00
00
00
00
30
30
30
E0
C0
ENDCHAR
STARTCHAR 003C
ENCODING 60
SWIDTH 400 0
DWIDTH 8 0
BBX 7 11 0 0
BITMAP
06
0E
1C
38
70
E0
70
38
1C
0E
06
ENDCHAR
STARTCHAR 003D
ENCODING 61
SWIDTH 450 0
DWIDTH 9 0
BBX 8 6 0 3
BITMAP
FF
FF
00
00
FF
FF
ENDCHAR
STARTCHAR 003E
ENCODING 62
SWIDTH 400 0
DWIDTH 8 0
BBX 7 11 0 0
BITMAP
C0
E0
70
38
1C
0E
1C
38
70
E0
C0
ENDCHAR
STARTCHAR 003F
ENCODING 63
SWIDTH 550 0
DWIDTH 11 0
BBX 10 16 0 0
BITMAP
3F00
7F80
C0C0
C0C0
00C0
00C0
00C0
0780
0F00
0C00
0C00
0C00
0000
0000
0C00
0C00
ENDCHAR
STARTCHAR 0041
ENCODING 65
SWIDTH 650 0
DWIDTH 13 0
BBX 12 15 0 0
BITMAP
0600
0600
0F00
0F00
1980
1980
1980
30C0
30C0
30C0
7FE0
7FE0
C030
C030
C030
ENDCHAR
STARTCHAR 0042
ENCODING 66
SWIDTH 600 0
DWIDTH 12 0
BBX 11 15 0 0
BITMAP
FF00
FFC0
C0C0
C060
C060
C0E0
FFC0
FFC0
C0E0
C060
C060
C060
C0C0
FFC0
FF00
ENDCHAR
STARTCHAR 0043
ENCODING 67
SWIDTH 700 0
DWIDTH 14 0
BBX 13 15 0 0
BITMAP
1FC0
7FF0
6030
C018
C000
C000
C000
C000
C000
C000
C018
C018
6030
7FF0
1FC0
ENDCHAR
STARTCHAR 0044
ENCODING 68
SWIDTH 650 0
DWIDTH 13 0
BBX 12 15 0 0
BITMAP
FF80
FFE0
C060
C030
C030
C030
C030
C030
C030
C030
C030
C030
C060
FFE0
FF80
ENDCHAR
STARTCHAR 0045
ENCODING 69
SWIDTH 600 0
DWIDTH 12 0
BBX 11 15 0 0
BITMAP
FFE0
FFE0
C000
C000
C000
C000
FFC0
FFC0
C000
C000
C000
C000
C000
FFE0
FFE0
ENDCHAR
STARTCHAR 0046
ENCODING 70
SWIDTH 600 0
DWIDTH 12 0
BBX 11 15 0 0
BITMAP
FFE0
FFE0
C000
C000
C000
C000
FFC0
FFC0
C000
C000
C000
C000
C000
C000
C000
ENDCHAR
STARTCHAR 0047
ENCODING 71
SWIDTH 700 0
DWIDTH 14 0
BBX 13 15 0 0
BITMAP
1FC0
7FF0
6030
C018
C000
C000
C000
C1F8
C1F8
C018
C018
C018
6030
7FF0
1FC0
ENDCHAR
STARTCHAR 0048
ENCODING 72
SWIDTH 600 0
DWIDTH 12 0
BBX 11 15 0 0
BITMAP
C060
C060
C060
C060
C060
C060
FFE0
FFE0
C060
C060
C060
C060
C060
C060
C060
ENDCHAR
STARTCHAR 0049
ENCODING 73
SWIDTH 150 0
DWIDTH 3 0
BBX 2 15 0 0
BITMAP
C0
C0
C0
C0
C0
C0
C0
C0
C0
C0
C0
C0
C0
C0
C0
ENDCHAR
STARTCHAR 004A
ENCODING 74
SWIDTH 550 0
DWIDTH 11 0
BBX 10 15 0 0
BITMAP
00C0
00C0
00C0
00C0
00C0
00C0
00C0
00C0
C0C0
C0C0
C0C0
C0C0
6180
7F80
1E00
ENDCHAR
STARTCHAR 004B
ENCODING 75
SWIDTH 600 0
DWIDTH 12 0
BBX 11 15 0 0
BITMAP
C0E0
C1C0
C380
C700
CE00
DC00
F800
F000
F800
DC00
CE00
C700
C380
C1C0
C0E0
ENDCHAR
STARTCHAR 004C
ENCODING 76
SWIDTH 600 0
DWIDTH 12 0
BBX 11 15 0 0
BITMAP
C000
C000
C000
C000
C000
C000
C000
C000
C000
C000
C000
C000
C000
FFE0
FFE0
ENDCHAR
STARTCHAR 004D
ENCODING 77
SWIDTH 800 0
DWIDTH 16 0
BBX 15 15 0 0
BITMAP
E00E
E00E
F01E
F01E
D836
D836
CC66
CC66
C6C6
C6C6
C386
C386
C006
C006
C006
ENDCHAR
STARTCHAR 004E
ENCODING 78
SWIDTH 650 0
DWIDTH 13 0
BBX 12 15 0 0
BITMAP
C030
E030
F030
F030
D830
D830
CC30
C630
C330
C3B0
C1B0
C0F0
C0F0
C070
C030
ENDCHAR
STARTCHAR 004F
ENCODING 79
SWIDTH 700 0
DWIDTH 14 0
BBX 13 15 0 0
BITMAP
1FC0
7FF0
6030
C018
C018
C018
C018
C018
C018
C018
C018
C018
6030
7FF0
1FC0
ENDCHAR
STARTCHAR 0050
ENCODING 80
SWIDTH 600 0
DWIDTH 12 0
BBX 11 15 0 0
BITMAP
FF00
FFC0
C0C0
C060
C060
C060
C060
C0C0
FFC0
FF00
C000
C000
C000
C000
C000
ENDCHAR
STARTCHAR 0051
ENCODING 81
SWIDTH 700 0
DWIDTH 14 0
BBX 13 18 0 -3
BITMAP
1FC0
7FF0
6030
C018
C018
C018
C018
C018
C018
C018
C018
C018
6030
7FF0
1FC0
01C0
00E0
0070
ENDCHAR
STARTCHAR 0052
ENCODING 82
SWIDTH 600 0
DWIDTH 12 0
BBX 11 15 0 0
BITMAP
FF00
FFC0
C0C0
C060
C060
C060
C060
C0C0
FFC0
FF80
C180
C0C0
C0C0
C060
C060
ENDCHAR
STARTCHAR 0053
ENCODING 83
SWIDTH 600 0
DWIDTH 12 0
BBX 11 15 0 0
BITMAP
1F00
7FC0
60C0
C060
C000
6000
7F00
1FC0
00C0
0060
C060
C060
60C0
7FC0
1F00
ENDCHAR
STARTCHAR 0054
ENCODING 84
SWIDTH 650 0
DWIDTH 13 0
BBX 12 15 0 0
BITMAP
FFF0
FFF0
0600
0600
0600
0600
0600
0600
0600
0600
0600
0600
0600
0600
0600
ENDCHAR
STARTCHAR 0055
ENCODING 85
SWIDTH 650 0
DWIDTH 13 0
BBX 12 15 0 0
BITMAP
C030
C030
C030
C030
C030
C030
C030
C030
C030
C030
C030
C030
6060
7FE0
1F80
ENDCHAR
STARTCHAR 0056
ENCODING 86
SWIDTH 650 0
DWIDTH 13 0
BBX 12 15 0 0
BITMAP
C030
C030
6060
6060
6060
30C0
30C0
1980
1980
1980
0F00
0F00
0F00
0600
0600
ENDCHAR
STARTCHAR 0057
ENCODING 87
SWIDTH 950 0
DWIDTH 19 0
BBX 18 15 0 0
BITMAP
C0C0C0
C0C0C0
61E180
61E180
61E180
61E180
333300
333300
333300
1E1E00
1E1E00
1E1E00
1E1E00
0C0C00
0C0C00
ENDCHAR
STARTCHAR 0058
ENCODING 88
SWIDTH 650 0
DWIDTH 13 0
BBX 12 15 0 0
BITMAP
C030
E070
70E0
39C0
1980
1F80
0F00
0600
0F00
1F80
1980
39C0
70E0
E070
C030
ENDCHAR
STARTCHAR 0059
ENCODING 89
SWIDTH 650 0
DWIDTH 13 0
BBX 12 15 0 0
BITMAP
C030
6060
6060
30C0
30C0
1980
1980
0F00
0F00
0600
0600
0600
0600
0600
0600
ENDCHAR
STARTCHAR 005A
ENCODING 90
SWIDTH 600 0
DWIDTH 12 0
BBX 11 15 0 0
BITMAP
FFE0
FFE0
0060
00E0
01C0
0380
0700
0E00
1C00
3800
7000
E000
C000
FFE0
FFE0
ENDCHAR
STARTCHAR 005B
ENCODING 91
SWIDTH 250 0
DWIDTH 5 0
BBX 4 18 0 -3
BITMAP
F0
F0
C0
C0
C0
C0
C0
C0
C0
C0
C0
C0
C0
C0
C0
C0
F0
F0
ENDCHAR
STARTCHAR 005C
ENCODING 92
SWIDTH 400 0
DWIDTH 8 0
BBX 7 18 0 -3
BITMAP
C0
C0
C0
60
60
60
30
30
30
18
18
18
0C
0C
0C
06
06
06
ENDCHAR
STARTCHAR 005D
ENCODING 93
SWIDTH 250 0
DWIDTH 5 0
BBX 4 18 0 -3
BITMAP
F0
F0
30
30
30
30
30
30
30
30
30
30
30
30
30
30
F0
F0
ENDCHAR
STARTCHAR 005E
ENCODING 94
SWIDTH 400 0
DWIDTH 8 0
BBX 7 6 0 9
BITMAP
38
38
6C
6C
C6
C6
ENDCHAR
STARTCHAR 005F
ENCODING 95
SWIDTH 400 0
DWIDTH 8 0
BBX 7 2 0 0
BITMAP
FE
FE
ENDCHAR
STARTCHAR 0060
ENCODING 96
SWIDTH 300 0
DWIDTH 6 0
BBX 4 3 0 12
BITMAP
C0
60
30
ENDCHAR
STARTCHAR 0061
ENCODING 97
SWIDTH 550 0
DWIDTH 11 0
BBX 10 11 0 0
BITMAP
7F00
7F80
00C0
00C0
3FC0
7FC0
C0C0
C0C0
C0C0
7FC0
3F80
ENDCHAR
STARTCHAR 0062
ENCODING 98
SWIDTH 550 0
DWIDTH 11 0
BBX 10 15 0 0
BITMAP
C000
C000
C000
C000
DF00
FF80
C0C0
C0C0
C0C0
C0C0
C0C0
C0C0
C0C0
FF80
7F00
ENDCHAR
STARTCHAR 0063
ENCODING 99
SWIDTH 550 0
DWIDTH 11 0
BBX 10 11 0 0
BITMAP
3F00
7F80
C0C0
C000
C000
C000
C000
C0C0
C0C0
7F80
3F00
ENDCHAR
STARTCHAR 0064
ENCODING 100
SWIDTH 550 0
DWIDTH 11 0
BBX 10 15 0 0
BITMAP
00C0
00C0
00C0
00C0
3EC0
7FC0
C0C0
C0C0
C0C0
C0C0
C0C0
C0C0
C0C0
7FC0
3F80
ENDCHAR
STARTCHAR 0065
ENCODING 101
SWIDTH 550 0
DWIDTH 11 0
BBX 10 11 0 0
BITMAP
3F00
7F80
C0C0
C0C0
C0C0
FFC0
FFC0
C000
C000
7F80
3F80
ENDCHAR
STARTCHAR 0066
ENCODING 102
SWIDTH 400 0
DWIDTH 8 0
BBX 7 15 0 0
BITMAP
0E
1E
30
30
FE
FE
30
30
30
30
30
30
30
30
30
ENDCHAR
STARTCHAR 0067
ENCODING 103
SWIDTH 550 0
DWIDTH 11 0
BBX 10 15 0 -4
BITMAP
3F80
7FC0
C0C0
C0C0
C0C0
C0C0
C0C0
C0C0
C0C0
7FC0
3EC0
00C0
00C0
3F80
3F00
ENDCHAR
STARTCHAR 0068
ENCODING 104
SWIDTH 550 0
DWIDTH 11 0
BBX 10 15 0 0
BITMAP
C000
C000
C000
C000
DF00
FF80
C0C0
C0C0
C0C0
C0C0
C0C0
C0C0
C0C0
C0C0
C0C0
ENDCHAR
STARTCHAR 0069
ENCODING 105
SWIDTH 150 0
DWIDTH 3 0
BBX 2 15 0 0
BITMAP
C0
C0
00
00
C0
C0
C0
C0
C0
C0
C0
C0
C0
C0
C0
ENDCHAR
STARTCHAR 006A
ENCODING 106
SWIDTH 200 0
DWIDTH 4 0
BBX 4 19 -1 -4
BITMAP
30
30
00
00
30
30
30
30
30
30
30
30
30
30
30
30
30
E0
C0
ENDCHAR
STARTCHAR 006B
ENCODING 107
SWIDTH 550 0
DWIDTH 11 0
BBX 10 15 0 0
BITMAP
C000
C000
C000
C000
C380
C700
CE00
DC00
F800
F800
DC00
CE00
C700
C380
C1C0
ENDCHAR
STARTCHAR 006C
ENCODING 108
SWIDTH 150 0
DWIDTH 3 0
BBX 2 15 0 0
BITMAP
C0
C0
C0
C0
C0
C0
C0
C0
C0
C0
C0
C0
C0
C0
C0
ENDCHAR
STARTCHAR 006D
ENCODING 109
SWIDTH 750 0
DWIDTH 15 0
BBX 14 11 0 0
BITMAP
DCF0
FFF8
C30C
C30C
C30C
C30C
C30C
C30C
C30C
C30C
C30C
ENDCHAR
STARTCHAR 006E
ENCODING 110
SWIDTH 500 0
DWIDTH 10 0
BBX 9 11 0 0
BITMAP
DE00
FF00
C180
C180
C180
C180
C180
C180
C180
C180
C180
ENDCHAR
STARTCHAR 006F
ENCODING 111
SWIDTH 550 0
DWIDTH 11 0
BBX 10 11 0 0
BITMAP
3F00
7F80
C0C0
C0C0
C0C0
C0C0
C0C0
C0C0
C0C0
7F80
3F00
ENDCHAR
STARTCHAR 0070
ENCODING 112
SWIDTH 550 0
DWIDTH 11 0
BBX 10 15 0 -4
BITMAP
7F00
FF80
C0C0
C0C0
C0C0
C0C0
C0C0
C0C0
C0C0
FF80
DF00
C000
C000
C000
C000
ENDCHAR
STARTCHAR 0071
ENCODING 113
SWIDTH 550 0
DWIDTH 11 0
BBX 10 15 0 -4
BITMAP
3F80
7FC0
C0C0
C0C0
C0C0
C0C0
C0C0
C0C0
C0C0
7FC0
3EC0
00C0
00C0
00C0
00C0
ENDCHAR
STARTCHAR 0072
ENCODING 114
SWIDTH 350 0
DWIDTH 7 0
BBX 6 11 0 0
BITMAP
DC
FC
E0
C0
C0
C0
C0
C0
C0
C0
C0
ENDCHAR
STARTCHAR 0073
ENCODING 115
SWIDTH 550 0
DWIDTH 11 0
BBX 10 11 0 0
BITMAP
3F80
7F80
C000
C000
7F00
3F80
00C0
00C0
00C0
7F80
7F00
ENDCHAR
STARTCHAR 0074
ENCODING 116
SWIDTH 450 0
DWIDTH 9 0
BBX 8 13 0 0
BITMAP
30
30
FF
FF
30
30
30
30
30
30
30
1F
0F
ENDCHAR
STARTCHAR 0075
ENCODING 117
SWIDTH 550 0
DWIDTH 11 0
BBX 10 11 0 0
BITMAP
C0C0
C0C0
C0C0
C0C0
C0C0
C0C0
C0C0
C0C0
C0C0
7F80
3F00
ENDCHAR
STARTCHAR 0076
ENCODING 118
SWIDTH 550 0
DWIDTH 11 0
BBX 10 11 0 0
BITMAP
C0C0
C0C0
6180
6180
6180
3300
3300
3300
1E00
1E00
0C00
ENDCHAR
STARTCHAR 0077
ENCODING 119
SWIDTH 950 0
DWIDTH 19 0
BBX 18 11 0 0
BITMAP
C0C0C0
C0C0C0
61E180
61E180
333300
333300
333300
1E1E00
1E1E00
0C0C00
0C0C00
ENDCHAR
STARTCHAR 0078
ENCODING 120
SWIDTH 550 0
DWIDTH 11 0
BBX 10 11 0 0
BITMAP
C0C0
E1C0
7380
3F00
1E00
0C00
1E00
3F00
7380
E1C0
C0C0
ENDCHAR
STARTCHAR 0079
ENCODING 121
SWIDTH 550 0
DWIDTH 11 0
BBX 10 15 0 -4
BITMAP
C0C0
C0C0
C0C0
6180
6180
3300
3300
3300
1E00
1E00
0E00
0C00
0C00
7800
7000
ENDCHAR
STARTCHAR 007A
ENCODING 122
SWIDTH 550 0
DWIDTH 11 0
BBX 10 11 0 0
BITMAP
FFC0
FFC0
0380
0700
0E00
1C00
3800
7000
E000
FFC0
FFC0
ENDCHAR
STARTCHAR 007B
ENCODING 123
SWIDTH 350 0
DWIDTH 7 0
BBX 6 18 0 -3
BITMAP
1C
3C
30
30
30
30
30
70
E0
E0
70
30
30
30
30
30
3C
1C
ENDCHAR
STARTCHAR 007C
ENCODING 124
SWIDTH 150 0
DWIDTH 3 0
BBX 2 18 0 -3
BITMAP
C0
C0
C0
C0
C0
C0
C0
C0
C0
C0
C0
C0
C0
C0
C0
C0
C0
C0
ENDCHAR
STARTCHAR 007D
ENCODING 125
SWIDTH 350 0
DWIDTH 7 0
BBX 6 18 0 -3
BITMAP
E0
F0
30
30
30
30
30
38
1C
1C
38
30
30
30
30
30
F0
E0
ENDCHAR
STARTCHAR 3000
ENCODING 12288
SWIDTH 800 0
DWIDTH 16 0
BBX 0 0 0 0
BITMAP
ENDCHAR
STARTCHAR 3001
ENCODING 12289
SWIDTH 800 0
DWIDTH 16 0
BBX 4 4 0 0
BITMAP
C0
E0
30
30
ENDCHAR
STARTCHAR 3002
ENCODING 12290
SWIDTH 800 0
DWIDTH 16 0
BBX 6 6 0 0
BITMAP
30
78
CC
CC
78
30
ENDCHAR
STARTCHAR 3044
ENCODING 12356
SWIDTH 800 0
DWIDTH 16 0
BBX 14 14 0 0
BITMAP
C000
C000
C030
C038
C018
C00C
C00C
C00C
C00C
C60C
C60C
C600
7C00
3800
ENDCHAR
STARTCHAR 304A
ENCODING 12362
SWIDTH 800 0
DWIDTH 16 0
BBX 15 15 0 0
BITMAP
0C00
0C38
FFBC
FF8E
0C06
0C06
1FE0
7FF8
6C18
CC0C
CC0C
CC0C
CC1C
FCF8
78F0
ENDCHAR
STARTCHAR 304B
ENCODING 12363
SWIDTH 800 0
DWIDTH 16 0
BBX 15 15 0 0
BITMAP
1800
1818
181C
FF8C
FFC6
18E6
1866
1866
1866
3866
3060
3060
70E0
E7C0
C780
ENDCHAR
STARTCHAR 304C
ENCODING 12364
SWIDTH 800 0
DWIDTH 16 0
BBX 15 16 0 0
BITMAP
0036
1836
1800
181C
FF8C
FFC6
18E6
1866
1866
1866
3866
3060
3060
70E0
E7C0
C780
ENDCHAR
STARTCHAR 304D
ENCODING 12365
SWIDTH 800 0
DWIDTH 16 0
BBX 12 15 1 0
BITMAP
0600
0600
FFF0
FFF0
0180
FFF0
FFF0
00C0
3FC0
7FE0
C060
C000
C000
7F80
3F80
ENDCHAR
STARTCHAR 304E
ENCODING 12366
SWIDTH 800 0
DWIDTH 16 0
BBX 13 16 1 0
BITMAP
00D8
06D8
0600
FFF0
FFF0
0180
FFF0
FFF0
00C0
3FC0
7FE0
C060
C000
C000
7F80
3F80
ENDCHAR
STARTCHAR 304F
ENCODING 12367
SWIDTH 800 0
DWIDTH 16 0
BBX 10 15 3 0
BITMAP
0380
0700
0E00
1C00
3800
7000
E000
E000
7000
3800
1C00
0E00
0700
0380
01C0
ENDCHAR
STARTCHAR 3050
ENCODING 12368
SWIDTH 800 0
DWIDTH 16 0
BBX 12 15 3 0
BITMAP
0380
0700
0E00
1DB0
39B0
7000
E000
E000
7000
3800
1C00
0E00
0700
0380
01C0
ENDCHAR
STARTCHAR 3051
ENCODING 12369
SWIDTH 800 0
DWIDTH 16 0
BBX 15 15 0 0
BITMAP
6030
6030
C030
C7FE
C7FE
C030
C030
C030
C030
C030
C030
C030
C060
63E0
6380
ENDCHAR
STARTCHAR 3052
ENCODING 12370
SWIDTH 800 0
DWIDTH 16 0
BBX 15 15 0 0
BITMAP
6036
6036
C000
C7FE
C7FE
C030
C030
C030
C030
C030
C030
C030
C060
63E0
6380
ENDCHAR
STARTCHAR 3053
ENCODING 12371
SWIDTH 800 0
DWIDTH 16 0
BBX 13 14 1 0
BITMAP
3FF0
3FF0
0000
0000
0000
0000
6000
E000
C000
C000
C000
E000
7FF8
3FF8
ENDCHAR
STARTCHAR 3054
ENCODING 12372
SWIDTH 800 0
DWIDTH 16 0
BBX 13 14 1 0
BITMAP
3FF0
3FF0
0000
00D8
00D8
0000
6000
E000
C000
C000
C000
E000
7FF8
3FF8
ENDCHAR
STARTCHAR 3055
ENCODING 12373
SWIDTH 800 0
DWIDTH 16 0
BBX 14 15 0 0
BITMAP
0300
0300
0180
FFFC
FFFC
00C0
0060
1FF0
3FF0
7030
6000
6000
7000
3FE0
1FE0
ENDCHAR
STARTCHAR 3056
ENCODING 12374
SWIDTH 800 0
DWIDTH 16 0
BBX 15 15 0 0
BITMAP
0336
0336
0180
FFFC
FFFC
00C0
0060
1FF0
3FF0
7030
6000
6000
7000
3FE0
1FE0
ENDCHAR
STARTCHAR 3057
ENCODING 12375
SWIDTH 800 0
DWIDTH 16 0
BBX 11 15 2 0
BITMAP
C000
C000
C000
C000
C000
C000
C000
C060
C060
C060
C060
C060
60C0
7FC0
1F00
ENDCHAR
STARTCHAR 3058
ENCODING 12376
SWIDTH 800 0
DWIDTH 16 0
BBX 11 15 2 0
BITMAP
C360
C360
C000
C000
C000
C000
C000
C060
C060
C060
C060
C060
60C0
7FC0
1F00
ENDCHAR
STARTCHAR 3059
ENCODING 12377
SWIDTH 800 0
DWIDTH 16 0
BBX 15 15 0 0
BITMAP
0030
0030
FFFE
FFFE
0030
0FF0
1FF0
3030
3030
1FF0
0FF0
0030
0060
1FE0
1F80
ENDCHAR
STARTCHAR 305A
ENCODING 12378
SWIDTH 800 0
DWIDTH 16 0
BBX 15 16 0 0
BITMAP
0036
0036
0000
FFFE
FFFE
0030
0FF0
1FF0
3030
3030
1FF0
0FF0
0030
0060
1FE0
1F80
ENDCHAR
STARTCHAR 305F
ENCODING 12383
SWIDTH 800 0
DWIDTH 16 0
BBX 14 15 0 0
BITMAP
1800
1800
FFF0
FFF0
3000
3000
33FC
33FC
6000
6000
6600
6600
E600
C3FC
C1FC
ENDCHAR
STARTCHAR 3060
ENCODING 12384
SWIDTH 800 0
DWIDTH 16 0
BBX 15 15 0 0
BITMAP
1836
1836
FFC0
FFF0
3000
3000
33FC
33FC
6000
6000
6600
6600
E600
C3FC
C1FC
ENDCHAR
STARTCHAR 3064
ENCODING 12388
SWIDTH 800 0
DWIDTH 16 0
BBX 15 12 0 1
BITMAP
FFE0
FFF8
001C
000C
0006
0006
0006
0006
000C
001C
1FF8
1FE0
ENDCHAR
STARTCHAR 3065
ENCODING 12389
SWIDTH 800 0
DWIDTH 16 0
BBX 15 15 0 1
BITMAP
0036
0036
0000
FFE0
FFF8
001C
000C
0006
0006
0006
0006
000C
001C
1FF8
1FE0
ENDCHAR
STARTCHAR 3066
ENCODING 12390
SWIDTH 800 0
DWIDTH 16 0
BBX 14 14 0 0
BITMAP
FFFC
FFFC
01C0
0700
0E00
0C00
1800
1800
1800
1800
1800
0C00
0FF0
03F0
ENDCHAR
STARTCHAR 3067
ENCODING 12391
SWIDTH 800 0
DWIDTH 16 0
BBX 14 14 0 0
BITMAP
FFFC
FFFC
01C0
0700
0E6C
0C6C
1800
1800
1800
1800
1800
0C00
0FF0
03F0
ENDCHAR
STARTCHAR 306A
ENCODING 12394
SWIDTH 800 0
DWIDTH 16 0
BBX 15 15 0 0
BITMAP
1800
1800
FE70
FE7C
180E
1866
3860
3060
7060
E7E0
CFF8
0C7C
0C6E
0FE6
07C0
ENDCHAR
STARTCHAR 306B
ENCODING 12395
SWIDTH 800 0
DWIDTH 16 0
BBX 15 15 0 0
BITMAP
6000
6000
C3FE
C3FE
C000
C000
C000
C000
C000
C600
C600
C700
C3FE
61FE
6000
ENDCHAR
STARTCHAR 306D
ENCODING 12397
SWIDTH 800 0
DWIDTH 16 0
BBX 15 15 0 0
BITMAP
1800
1800
FBF0
FFFC
1E0C
1C06
3806
3806
7806
78FE
D9FE
D98E
198C
19FE
18F6
ENDCHAR
STARTCHAR 306E
ENCODING 12398
SWIDTH 800 0
DWIDTH 16 0
BBX 15 14 0 0
BITMAP
0FE0
3FF8
719C
618C
C186
C186
C186
C306
C306
C306
C306
670C
7E3C
1C30
ENDCHAR
STARTCHAR 306F
ENCODING 12399
SWIDTH 800 0
DWIDTH 16 0
BBX 15 15 0 0
BITMAP
6030
6030
C030
C7FE
C7FE
C030
C030
C030
C030
C3F0
C7F8
C63C
C63E
67F6
63E0
ENDCHAR
STARTCHAR 3070
ENCODING 12400
SWIDTH 800 0
DWIDTH 16 0
BBX 15 15 0 0
BITMAP
6036
6036
C000
C7FE
C7FE
C030
C030
C030
C030
C3F0
C7F8
C63C
C63E
67F6
63E0
ENDCHAR
STARTCHAR 3071
ENCODING 12401
SWIDTH 800 0
DWIDTH 16 0
BBX 15 15 0 0
BITMAP
601C
6036
C036
C7FE
C7FE
C030
C030
C030
C030
C3F0
C7F8
C63C
C63E
67F6
63E0
ENDCHAR
STARTCHAR 307B
ENCODING 12411
SWIDTH 800 0
DWIDTH 16 0
BBX 15 15 0 0
BITMAP
6000
67FE
C7FE
C018
C018
C7FE
C7FE
C018
C018
C3F8
C7FC
C61E
C61E
67F8
63F0
ENDCHAR
STARTCHAR 307C
ENCODING 12412
SWIDTH 800 0
DWIDTH 16 0
BBX 15 16 0 0
BITMAP
0036
6036
67FE
C7FE
C018
C018
C7FE
C7FE
C018
C018
C3F8
C7FC
C61E
C61E
67F8
63F0
ENDCHAR
STARTCHAR 307D
ENCODING 12413
SWIDTH 800 0
DWIDTH 16 0
BBX 15 16 0 0
BITMAP
001C
6036
67FE
C7FE
C018
C018
C7FE
C7FE
C018
C018
C3F8
C7FC
C61E
C61E
67F8
63F0
ENDCHAR
STARTCHAR 307E
ENCODING 12414
SWIDTH 800 0
DWIDTH 16 0
BBX 12 15 1 0
BITMAP
0300
FFF0
FFF0
0300
0300
FFF0
FFF0
0300
0300
3FC0
7FE0
C370
C330
7F00
3E00
ENDCHAR
STARTCHAR 307F
ENCODING 12415
SWIDTH 800 0
DWIDTH 16 0
BBX 15 14 0 0
BITMAP
3F00
3F00
0318
0318
0318
1FD8
7FF8
633C
C31E
C61A
EE18
7C30
3870
00C0
ENDCHAR
STARTCHAR 3089
ENCODING 12425
SWIDTH 800 0
DWIDTH 16 0
BBX 13 15 0 0
BITMAP
1E00
1F80
01E0
3060
6000
6000
DFE0
FFF0
E038
C018
0018
0018
0030
3FF0
3FC0
ENDCHAR
STARTCHAR 308A
ENCODING 12426
SWIDTH 800 0
DWIDTH 16 0
BBX 11 15 2 0
BITMAP
0060
C060
C060
C060
C060
C060
C060
C060
7860
3860
0060
00C0
01C0
3F80
3E00
ENDCHAR
STARTCHAR 308B
ENCODING 12427
SWIDTH 800 0
DWIDTH 16 0
BBX 13 15 1 0
BITMAP
7FE0
7FE0
01C0
0380
0700
0E00
1FC0
3FF0
7030
E018
CFD8
1FF8
3070
3FF0
1FC0
ENDCHAR
STARTCHAR 308C
ENCODING 12428
SWIDTH 800 0
DWIDTH 16 0
BBX 15 15 0 0
BITMAP
1800
1800
FBC0
FFE0
1E30
1C30
3830
3830
7830
7830
D830
D830
183E
181E
1800
ENDCHAR
STARTCHAR 308D
ENCODING 12429
SWIDTH 800 0
DWIDTH 16 0
BBX 13 15 1 0
BITMAP
7FE0
7FE0
01C0
0380
0700
0E00
1FC0
3FF0
7030
E018
C018
0018
0030
3FF0
3FC0
ENDCHAR
STARTCHAR 308F
ENCODING 12431
SWIDTH 800 0
DWIDTH 16 0
BBX 15 15 0 0
BITMAP
1800
1800
FBF0
FFFC
1E0C
1C06
3806
3806
7806
7806
D806
D806
180C
19FC
19F0
ENDCHAR
STARTCHAR 3093
ENCODING 12435
SWIDTH 850 0
DWIDTH 17 0
BBX 16 15 0 0
BITMAP
0180
0300
0300
0600
0600
0C00
0F80
1FC0
18C0
30C3
30C3
60C3
60C3
C07E
C03C
ENDCHAR
ENDFONT
